<svg xmlns="http://www.w3.org/2000/svg" xmlns:xlink="http://www.w3.org/1999/xlink" viewBox="0 0 64 64"><pattern id="q" width="37.46" height="40.5" x="-588" y="-588" overflow="visible" patternUnits="userSpaceOnUse" viewBox="0 -40.5 37.46 40.5"><path fill="none" d="M0-40.5h37.46V0H0z"/><path fill="#f06051" d="M0-40.5h37.46V0H0z"/></pattern><pattern id="c" width="37.46" height="40.5" x="-588" y="-588" overflow="visible" patternUnits="userSpaceOnUse" viewBox="0 -40.5 37.46 40.5"><path fill="none" d="M0-40.5h37.46V0H0z"/><path fill="#fcbe5e" d="M0-40.5h37.46V0H0z"/></pattern><pattern id="e" width="37.46" height="40.5" x="-588" y="-588" overflow="visible" patternUnits="userSpaceOnUse" viewBox="0 -40.5 37.46 40.5"><path fill="none" d="M0-40.5h37.46V0H0z"/><path fill="#f5a84b" d="M0-40.5h37.46V0H0z"/></pattern><pattern id="g" width="37.46" height="40.5" x="-588" y="-588" overflow="visible" patternUnits="userSpaceOnUse" viewBox="0 -40.5 37.46 40.5"><path fill="none" d="M0-40.5h37.46V0H0z"/><path fill="#2ea1da" d="M0-40.5h37.46V0H0z"/></pattern><pattern id="i" width="37.46" height="40.5" x="-588" y="-588" overflow="visible" patternUnits="userSpaceOnUse" viewBox="0 -40.5 37.46 40.5"><path fill="none" d="M0-40.5h37.46V0H0z"/><path fill="#1392b7" d="M0-40.5h37.46V0H0z"/></pattern><pattern id="l" width="37.46" height="40.5" x="-588" y="-588" overflow="visible" patternUnits="userSpaceOnUse" viewBox="0 -40.5 37.46 40.5"><path fill="none" d="M0-40.5h37.46V0H0z"/><path fill="#d1d6d8" d="M0-40.5h37.46V0H0z"/></pattern><pattern id="n" width="37.46" height="40.5" x="-588" y="-588" overflow="visible" patternUnits="userSpaceOnUse" viewBox="0 -40.5 37.46 40.5"><path fill="none" d="M0-40.5h37.46V0H0z"/><path fill="#c0c1c3" d="M0-40.5h37.46V0H0z"/></pattern><pattern id="a" width="103.53" height="98.99" x="-588" y="-588" overflow="visible" patternUnits="userSpaceOnUse" viewBox="0 -98.99 103.53 98.99"><path fill="none" d="M0-98.99h103.53V0H0z"/><path fill="#173651" d="M0-98.99h103.53V0H0z"/></pattern><pattern id="b" patternTransform="translate(-86.474 -93.022)" xlink:href="#a"/><path fill="url(#b)" d="M44.58 7.7h-5.12v-1c0-1.17-1.08-2.13-2.4-2.13h-5.19c-.28 0-.47-.14-.48-.16.01-.43-.06-.86-.19-1.28-.51-1.57-2.07-2.77-3.95-3.05-1.69-.25-3.39.19-4.57 1.21-.95.8-1.46 1.88-1.46 3.05 0 .04-.03.07-.06.1-.08.09-.23.14-.39.14h-5.23c-1.32 0-2.4.96-2.4 2.13v1H8.03a4.78 4.78 0 0 0-4.78 4.78v46.73C3.25 61.85 5.4 64 8.03 64h36.55c2.64 0 4.78-2.15 4.78-4.79V12.48a4.78 4.78 0 0 0-4.78-4.78zm-29.49-1c.01-.04.16-.19.46-.19h5.23c.68 0 1.31-.25 1.76-.71.41-.41.62-.93.62-1.47v-.04c.01-.56.28-1.11.79-1.54.76-.65 1.88-.93 3.01-.76 1.15.17 2.11.87 2.4 1.75.07.2.11.42.1.62-.01.51.18 1.02.57 1.41.46.48 1.13.75 1.85.75h5.19c.3 0 .45.16.46.19v3.93c-.01.05-.15.19-.46.19H15.55c-.3 0-.45-.15-.46-.18V6.7zm32.33 52.51c0 1.57-1.27 2.85-2.84 2.85H8.03c-.11 0-.2-.01-.31-.02-.06 0-.11-.01-.16-.03-.11-.01-.21-.03-.31-.07-.13-.02-.25-.07-.37-.13-.12-.05-.23-.11-.34-.17-.11-.07-.21-.15-.31-.22-.12-.1-.22-.2-.33-.32-.07-.08-.13-.16-.18-.24-.08-.11-.15-.21-.2-.33-.2-.4-.32-.83-.32-1.31V12.48c0-1.57 1.27-2.84 2.84-2.84h5.12v1c0 1.17 1.08 2.12 2.4 2.12h21.52c1.32 0 2.4-.95 2.4-2.12v-1h5.12c.47 0 .91.12 1.3.31 0 0 .01 0 .01.01.17.09.34.2.49.33.07.06.14.12.2.18.16.16.3.34.43.53.06.1.11.2.16.31.06.12.1.24.14.37.03.1.06.2.07.31.02.06.03.12.03.17.01.1.02.2.02.31v46.74z"/><pattern id="d" patternTransform="translate(-2.724 -25.467)" xlink:href="#c"/><path fill="url(#d)" d="M47.4 12.17c0-.06-.01-.12-.03-.17-.01-.11-.04-.21-.07-.31-.03-.13-.08-.25-.14-.37-.05-.11-.1-.21-.16-.31-.13-.19-.26-.38-.43-.53a3.007 3.007 0 0 0-.69-.51c0-.01-.01-.01-.01-.01-.39-.19-.83-.31-1.3-.31h-5.12v1c0 1.17-1.08 2.12-2.4 2.12h-21.5c-1.32 0-2.4-.95-2.4-2.12v-1H8.03c-1.57 0-2.84 1.27-2.84 2.84v46.73c0 .48.12.91.32 1.31.06.12.13.22.2.33.06.09.12.16.18.24.11.12.21.22.33.32.1.08.2.16.31.22.11.07.22.13.34.17.12.06.24.11.37.14.1.03.2.06.31.07.06.02.11.03.16.03.11.01.2.02.31.02h36.55c1.57 0 2.84-1.28 2.84-2.85V12.48c.01-.11 0-.21-.01-.31zM8.25 16.14c0-.53.44-.97.97-.97H43.4c.53 0 .97.44.97.97v42.55c0 .53-.44.97-.97.97H9.22c-.53 0-.97-.44-.97-.97V16.14z"/><pattern id="f" patternTransform="translate(-2.724 -25.467)" xlink:href="#e"/><path fill="url(#f)" d="M47.42 12.48v46.73c0 1.57-1.27 2.85-2.84 2.85H8.03c-1.1 0-2.05-.63-2.52-1.54.39.19.82.31 1.29.31h36.55c1.57 0 2.84-1.28 2.84-2.85V11.25c0-.47-.12-.91-.31-1.3.91.48 1.54 1.43 1.54 2.53z"/><pattern id="h" patternTransform="translate(-2.724 -25.467)" xlink:href="#g"/><path fill="url(#h)" d="M37.52 6.7v3.93c-.01.05-.15.19-.46.19H15.55c-.3 0-.45-.15-.46-.18V6.7c.01-.04.16-.19.46-.19h5.23c.68 0 1.31-.25 1.76-.71.41-.41.62-.93.62-1.47v-.04c.01-.56.28-1.11.79-1.54.76-.65 1.88-.93 3.01-.76 1.15.17 2.11.87 2.4 1.75.07.2.11.42.1.62-.01.51.18 1.02.57 1.41.46.48 1.13.75 1.85.75h5.19c.3-.01.44.14.45.18z"/><pattern id="j" patternTransform="translate(-2.724 -25.467)" xlink:href="#i"/><path fill="url(#j)" d="M37.52 6.7v3.93c-.01.05-.15.19-.46.19H15.55c-.3 0-.45-.15-.46-.18V9.35h20.08c.3 0 .45-.15.46-.19V6.51h1.43c.31 0 .45.15.46.19z"/><pattern id="k" patternTransform="translate(-86.474 -93.022)" xlink:href="#a"/><path fill="url(#k)" d="M43.4 15.17H9.22c-.53 0-.97.44-.97.97v42.55c0 .53.44.97.97.97H43.4c.53 0 .97-.44.97-.97V16.14a.97.97 0 0 0-.97-.97zm-.97 42.55H10.19V17.11h32.24v40.61z"/><pattern id="m" patternTransform="translate(-2.724 -25.467)" xlink:href="#l"/><path fill="url(#m)" d="M10.19 17.11v40.61h32.24V17.11H10.19zm11.15 37.22c0 .53-.43.97-.97.97h-4.85c-.53 0-.97-.44-.97-.97v-4.85c0-.54.44-.97.97-.97h4.85c.54 0 .97.43.97.97v4.85zm0-9.67c0 .53-.43.97-.97.97h-4.85c-.53 0-.97-.44-.97-.97v-4.85c0-.53.44-.97.97-.97h4.85c.54 0 .97.44.97.97v4.85zm0-9.65c0 .53-.43.97-.97.97h-4.85c-.53 0-.97-.44-.97-.97v-4.85c0-.53.44-.97.97-.97h4.85c.54 0 .97.44.97.97v4.85zm0-9.67c0 .54-.43.97-.97.97h-4.85a.97.97 0 0 1-.97-.97v-4.85c0-.53.44-.97.97-.97h4.85c.54 0 .97.44.97.97v4.85zM37.1 52.88H24.12c-.53 0-.97-.44-.97-.97 0-.54.44-.97.97-.97H37.1c.53 0 .97.43.97.97 0 .53-.44.97-.97.97zm0-9.67H24.12c-.53 0-.97-.44-.97-.97s.44-.97.97-.97H37.1c.53 0 .97.44.97.97s-.44.97-.97.97zm0-9.66H24.12c-.53 0-.97-.44-.97-.97s.44-.97.97-.97H37.1c.53 0 .97.44.97.97 0 .54-.44.97-.97.97zm0-9.67H24.12a.97.97 0 0 1-.97-.97c0-.53.44-.97.97-.97H37.1c.53 0 .97.44.97.97 0 .55-.44.97-.97.97z"/><pattern id="o" patternTransform="translate(-2.724 -25.467)" xlink:href="#n"/><path fill="url(#o)" d="M42.43 17.11v40.61H10.19v-1.94h30.3V17.11z"/><pattern id="p" patternTransform="translate(-86.474 -93.022)" xlink:href="#a"/><path fill="url(#p)" d="M20.37 19.52h-4.85c-.53 0-.97.44-.97.97v4.85c0 .54.44.97.97.97h4.85c.54 0 .97-.43.97-.97v-4.85a.97.97 0 0 0-.97-.97zm-.97 4.85h-2.91v-2.91h2.91v2.91z"/><pattern id="r" patternTransform="translate(-2.724 -25.467)" xlink:href="#q"/><path fill="url(#r)" d="M16.49 21.46h2.91v2.91h-2.91z"/><pattern id="s" patternTransform="translate(-86.474 -93.022)" xlink:href="#a"/><path fill="url(#s)" d="M20.37 29.19h-4.85c-.53 0-.97.44-.97.97v4.85c0 .53.44.97.97.97h4.85c.54 0 .97-.44.97-.97v-4.85c0-.54-.43-.97-.97-.97zm-.97 4.85h-2.91v-2.91h2.91v2.91z"/><pattern id="t" patternTransform="translate(-2.724 -25.467)" xlink:href="#q"/><path fill="url(#t)" d="M16.49 31.13h2.91v2.91h-2.91z"/><pattern id="u" patternTransform="translate(-86.474 -93.022)" xlink:href="#a"/><path fill="url(#u)" d="M20.37 38.85h-4.85c-.53 0-.97.44-.97.97v4.85c0 .53.44.97.97.97h4.85c.54 0 .97-.44.97-.97v-4.85c0-.54-.43-.97-.97-.97zm-.97 4.84h-2.91v-2.91h2.91v2.91z"/><pattern id="v" patternTransform="translate(-2.724 -25.467)" xlink:href="#q"/><path fill="url(#v)" d="M16.49 40.79h2.91v2.91h-2.91z"/><pattern id="w" patternTransform="translate(-86.474 -93.022)" xlink:href="#a"/><path fill="url(#w)" d="M20.37 48.51h-4.85a.97.97 0 0 0-.97.97v4.85c0 .53.44.97.97.97h4.85c.54 0 .97-.44.97-.97v-4.85c0-.54-.43-.97-.97-.97zm-.97 4.85h-2.91v-2.91h2.91v2.91z"/><pattern id="x" patternTransform="translate(-2.724 -25.467)" xlink:href="#q"/><path fill="url(#x)" d="M16.49 50.45h2.91v2.91h-2.91z"/><pattern id="y" patternTransform="translate(-86.474 -93.022)" xlink:href="#a"/><path fill="url(#y)" d="M38.07 22.91c0 .54-.44.97-.97.97H24.12a.97.97 0 0 1-.97-.97c0-.53.44-.97.97-.97H37.1c.53.01.97.44.97.97z"/><pattern id="z" patternTransform="translate(-86.474 -93.022)" xlink:href="#a"/><path fill="url(#z)" d="M38.07 32.58c0 .53-.44.97-.97.97H24.12c-.53 0-.97-.44-.97-.97s.44-.97.97-.97H37.1c.53 0 .97.44.97.97z"/><pattern id="A" patternTransform="translate(-86.474 -93.022)" xlink:href="#a"/><path fill="url(#A)" d="M38.07 42.24c0 .53-.44.97-.97.97H24.12c-.53 0-.97-.44-.97-.97s.44-.97.97-.97H37.1c.53 0 .97.44.97.97z"/><pattern id="B" patternTransform="translate(-86.474 -93.022)" xlink:href="#a"/><path fill="url(#B)" d="M38.07 51.91c0 .53-.44.97-.97.97H24.12c-.53 0-.97-.44-.97-.97 0-.54.44-.97.97-.97H37.1c.53 0 .97.43.97.97z"/><pattern id="C" patternTransform="translate(-86.474 -93.022)" xlink:href="#a"/><path fill="url(#C)" d="M60.75 55.85c0-.03-.02-.07-.03-.1l-.08-29.88v-.01c0-.03-.01-.07-.02-.1a.817.817 0 0 0-.06-.27v-.01l-3.24-7.46c-.16-.36-.53-.57-.9-.58-.39 0-.74.24-.88.6l-3 7.47-.01.02c-.02.06-.02.12-.03.17-.01.06-.04.12-.04.18v.02l.09 34.14c.01 2.2 1.78 3.96 3.95 3.96h.01l.29-.01c1.06 0 2.05-.41 2.78-1.15a3.91 3.91 0 0 0 1.15-2.79l-.02-4.08c.02-.05.04-.08.04-.12zm-4.28-34.91 1.73 3.99h-3.33l1.6-3.99zm2.24 5.91.07 28.04-4.3.01-.07-28.03 4.3-.02zm-.49 34.62c-.38.38-.88.58-1.42.58l-.3.01c-.55 0-1.05-.22-1.42-.59-.36-.36-.58-.86-.59-1.41l-.01-3.22 4.31-.01.01 3.22c0 .54-.22 1.04-.58 1.42z"/><pattern id="D" patternTransform="translate(-2.724 -25.467)" xlink:href="#g"/><path fill="url(#D)" d="m58.78 54.89-4.3.01-.07-28.03 4.3-.02z"/><pattern id="E" patternTransform="translate(-2.724 -25.467)" xlink:href="#i"/><path fill="url(#E)" d="m58.78 54.89-4.3.01v-1.24l3.36-.01-.07-26.8h.94z"/><pattern id="F" patternTransform="translate(-2.724 -25.467)" xlink:href="#l"/><path fill="url(#F)" d="M58.2 24.92h-3.33l1.6-3.98z"/><pattern id="G" patternTransform="translate(-2.724 -25.467)" xlink:href="#q"/><path fill="url(#G)" d="M58.8 60.05c0 .53-.21 1.04-.58 1.42-.38.38-.88.58-1.42.58l-.3.01c-.55 0-1.05-.22-1.42-.59-.36-.36-.58-.86-.59-1.41l-.01-3.22 4.31-.01.01 3.22z"/></svg>